<svg height="512" viewBox="0 0 64 64" width="512" xmlns="http://www.w3.org/2000/svg"><g id="Light-Lamp-Idea-Blub-Creative"><path d="m61 46v14h-51a7 7 0 1 1 0-14z" fill="#fee9ab"/><path d="m56 46h5v14h-5z" fill="#ffde55"/><path d="m43 21a10.97 10.97 0 0 1 -5 9.21v1.79l-12 2v-3.79a11 11 0 1 1 17-9.21z" fill="#ffd422"/><path d="m43 21a10.97 10.97 0 0 1 -5 9.21v1.79l-4 .67v-2.46a11 11 0 0 0 -4-20.03 11.017 11.017 0 0 1 13 10.82z" fill="#ebbf00"/><path d="m36 40.33v3.67a2.006 2.006 0 0 1 -2 2h-4a2.006 2.006 0 0 1 -2-2v-2.33z" fill="#806749"/><path d="m36 40.33v3.67a2.006 2.006 0 0 1 -2 2h-4a2.006 2.006 0 0 0 2-2v-3z" fill="#6a563d"/><path d="m30.293 26.707a1 1 0 0 0 .707.293h.038a1 1 0 0 0 .721-.348l6-7a1 1 0 0 0 -1.518-1.3l-5.3 6.18-2.236-2.236a1 1 0 0 0 -1.414 1.414z"/><path d="m32 7a1 1 0 0 0 1-1v-3a1 1 0 0 0 -2 0v3a1 1 0 0 0 1 1z"/><path d="m14 21h3a1 1 0 0 0 0-2h-3a1 1 0 0 0 0 2z"/><path d="m47 21h3a1 1 0 0 0 0-2h-3a1 1 0 0 0 0 2z"/><path d="m20.293 10.707a1 1 0 0 0 1.414-1.414l-2-2a1 1 0 1 0 -1.414 1.414z"/><path d="m43 11a1 1 0 0 0 .707-.293l2-2a1 1 0 1 0 -1.414-1.414l-2 2a1 1 0 0 0 .707 1.707z"/><path d="m32 9a12 12 0 0 0 -7 21.74v3.26a1.011 1.011 0 0 0 .35.76.987.987 0 0 0 .65.24.86.86 0 0 0 .16-.01l12-2a1 1 0 0 0 .84-.99v-1.26a12 12 0 0 0 -7-21.74zm5.45 20.38a1 1 0 0 0 -.45.83v.94l-10 1.67v-2.61a1 1 0 0 0 -.45-.83 10 10 0 1 1 10.9 0z"/><path d="m38.99 35.84a1 1 0 0 1 -.83 1.15l-12 2a.86.86 0 0 1 -.16.01 1 1 0 0 1 -.16-1.99l12-2a1 1 0 0 1 1.15.83z"/><path d="m61 45h-24.18a3 3 0 0 0 .18-1v-2.82l1.16-.19a1 1 0 0 0 -.32-1.98l-12 2a1 1 0 0 0 .16 1.99.86.86 0 0 0 .16-.01l.84-.14v1.15a3 3 0 0 0 .18 1h-17.18a8 8 0 0 0 0 16h51a1 1 0 0 0 1-1v-14a1 1 0 0 0 -1-1zm-32-2.49 6-1v2.49a1 1 0 0 1 -1 1h-4a1 1 0 0 1 -1-1zm31 9.49h-51a1 1 0 0 0 0 2h51v5h-50a6 6 0 0 1 0-12h50z"/></g></svg>